# xmcd
# 
# Track frame offsets:
#     150
#     14765
#     33075
#     48957
#     66137
#     77737
#     87620
#     104395
#     119502
#     133612
#     146307
#     162897
#     178487
#     192950
#     209387
#     225415
# 
# Disc length: 3180
# 
# Revision: 5
# Processed by: cddbd v1.5.2PL0 Copyright (c) Steve Scherf et al.
# Submitted via: fre:ac v1.0.31
# 
DISCID=de0c6a10
DTITLE=Various Artist - 6PAIR半+城市民歌白金珍藏版 [dB]
DYEAR=1980
DGENRE=Chinese Pop
TTITLE0=曾路得 - 天各一方
TTITLE1=盧業瑂 - 為什麼
TTITLE2=曾路得 - 那一天
TTITLE3=錢錢 - 冷雨
TTITLE4=陳小保/曾路得 - 快樂時光
TTITLE5=湯正川 - 年青人
TTITLE6=關西蒙 - 唱不完的故事
TTITLE7=湯正川 - 人在社會中
TTITLE8=林志美 - 風箏
TTITLE9=林志美 - 孤想
TTITLE10=李炳文 - 昨夜的渡輪上
TTITLE11=區桂芬/葉源春 - 問
TTITLE12=林志美 - 歸途
TTITLE13=黃敏華 - 提岸
TTITLE14=陶贊新 - 風
TTITLE15=黃敏華 - 變色的紫花
EXTD=
EXTT0=
EXTT1=
EXTT2=
EXTT3=
EXTT4=
EXTT5=
EXTT6=
EXTT7=
EXTT8=
EXTT9=
EXTT10=
EXTT11=
EXTT12=
EXTT13=
EXTT14=
EXTT15=
PLAYORDER=
